# xmcd
#
# Track frame offsets: 
#        150
#        21570
#        49189
#        67015
#        84912
#        108405
#        129200
#        145330
#        165947
#        179715
#        199995
#        215407
#        247787
#        260627
#
# Disc length: 3763 seconds
#
# Revision: 5
# Processed by: cddbd v1.5.2PL0 Copyright (c) Steve Scherf et al.
# Submitted via: ExactAudioCopy v1.0b3
#
DISCID=ca0eb10e
DTITLE=Various Artist - Hound Dog Taylor - A Tribute
DYEAR=1997
DGENRE=Blues
TTITLE0=Luther Allison - Give Me Back My Wig - Luther Allison
TTITLE1=Son Seals - Sadie - Son Seals
TTITLE2=Sonny Landreth - Taylor's Rock - Sonny Landreth
TTITLE3=Gov't Mule - Gonna Send You Back To Georgia - Gov't Mule
TTITLE4=Magic Slim and the Teardrops - Freddie's Blues - Magic Slim
TTITLE5=Steady Rollin' Bob Margolin - See Me In The Evening - Bob Marg
TTITLE5=olin
TTITLE6=Elvin Bishop - Let's Get Funky - Elvin Bishop
TTITLE7=Vernon Reid with Alvin Youngblood Hart - It's Alright (Acousti
TTITLE7=c) - Vernon Reid and Alvin Youngblood Hart
TTITLE8=Dave Hole - Hawaiian Boogie - Dave Hole
TTITLE9=Michael Hill's Blues Mob - She's Gone - Michael Hill's Blues M
TTITLE9=ob
TTITLE10=George Thorogood - I Just Can't Make It - George Thorogood
TTITLE11=Ronnie Earl and Friends - Wayward Angel - Ronnie Earl
TTITLE12=Cub Koda and The Houserockers - Take Five - Cub Koda
TTITLE13=Lil' Ed and The Blues Imperials - It's Alright - Lil' Ed and The 
TTITLE13=Blues Imperials
EXTD=YEAR: 1997 ID3G: 0
EXTT0=Luther Allison
EXTT1=Son Seals
EXTT2=Sonny Landreth
EXTT3=Gov't Mule
EXTT4=Magic Slim and The Teardrops
EXTT5=Steady Rollin' Bob Margolin
EXTT6=Elvin Bishop
EXTT7=Vernon Reid with Alvin Youngblood Hart
EXTT8=Dave Hole
EXTT9=Michael Hill's Blues Mob
EXTT10=George Thorogood
EXTT11=Ronnie Earl and Friends
EXTT12=Cub Koda and The Houserockers
EXTT13=Lil' Ed and The Blues Imperials
PLAYORDER=
